PathFileType	4	(X/Y/Z)	output.trc
DataRate	CameraRate	NumFrames	NumMarkers	Units	OrigDataRate	OrigDataStartFrame	OrigNumFrames
100	100	16	23	m	100	4885	5582
Frame#	Time	C7			T8			EL			EM			US			RS			AA			Fore_Clus_1			Fore_Clus_2			Fore_Clus_3			Fore_Clus_4			Hum_Clus_1			Hum_Clus_2			Hum_Clus_3			Hum_Clus_4			Thor_Clus_1			Thor_Clus_2			Thor_Clus_3			Thor_Clus_4			IJ			PX			GH			Thor_Clus_5		
		X1	Y1	Z1	X2	Y2	Z2	X3	Y3	Z3	X4	Y4	Z4	X5	Y5	Z5	X6	Y6	Z6	X7	Y7	Z7	X8	Y8	Z8	X9	Y9	Z9	X10	Y10	Z10	X11	Y11	Z11	X12	Y12	Z12	X13	Y13	Z13	X14	Y14	Z14	X15	Y15	Z15	X16	Y16	Z16	X17	Y17	Z17	X18	Y18	Z18	X19	Y19	Z19	X20	Y20	Z20	X21	Y21	Z21	X22	Y22	Z22	X23	Y23	Z23
4884	48.840000	0.040451	1.370408	-0.099747	-0.037147	1.188352	-0.173386	-0.346082	1.327096	-0.184942	-0.312435	1.299785	-0.225210	-0.524911	1.272030	-0.312381	-0.504679	1.226087	-0.324259	-0.149897	1.358892	-0.035763	-0.507750	1.263289	-0.254862	-0.549289	1.248985	-0.287393	-0.536347	1.224762	-0.292796	-0.486762	1.224444	-0.263211	-0.287606	1.359936	-0.085086	-0.249769	1.388342	-0.122125	-0.204797	1.405519	-0.080437	-0.231073	1.373258	-0.038962	0.053439	1.238119	0.047215	-0.020971	1.208884	0.074153	0.011761	1.251997	0.054234	0.039527	1.188170	0.063601	0.025167	1.277117	-0.001800	-0.049771	1.092082	0.012092	-0.112659	1.323672	-0.032909	-0.014614	1.230910	0.066194
4885	48.850000	0.040370	1.370390	-0.099808	-0.037214	1.188271	-0.173306	-0.346111	1.326682	-0.184856	-0.312435	1.299409	-0.225125	-0.524912	1.271257	-0.312194	-0.504632	1.225322	-0.324014	-0.149928	1.358836	-0.035684	-0.507665	1.262621	-0.254672	-0.549194	1.248216	-0.287179	-0.536289	1.223927	-0.292513	-0.486620	1.223726	-0.263001	-0.287650	1.359639	-0.085028	-0.249900	1.388101	-0.122061	-0.204905	1.405371	-0.080416	-0.231110	1.373054	-0.038907	0.053512	1.238185	0.047211	-0.021200	1.208953	0.074689	0.011840	1.252025	0.054256	0.039649	1.188246	0.063625	0.025189	1.277140	-0.001805	-0.049672	1.092084	0.012227	-0.112640	1.323658	-0.032889	-0.014508	1.230953	0.066217
4886	48.860000	0.040285	1.370373	-0.099865	-0.037269	1.188184	-0.173220	-0.346156	1.326273	-0.184757	-0.312453	1.299034	-0.225027	-0.524945	1.270504	-0.311983	-0.504618	1.224575	-0.323751	-0.149967	1.358772	-0.035613	-0.507632	1.261831	-0.254398	-0.549195	1.247373	-0.286957	-0.536060	1.223289	-0.292254	-0.486490	1.223051	-0.262771	-0.287714	1.359325	-0.084931	-0.250025	1.387834	-0.121961	-0.205035	1.405223	-0.080384	-0.231165	1.372892	-0.038845	0.053587	1.238251	0.047222	-0.020997	1.208966	0.074549	0.011902	1.252078	0.054274	0.039763	1.188290	0.063655	0.025207	1.277167	-0.001806	-0.049567	1.092087	0.012370	-0.112631	1.323643	-0.032863	-0.014409	1.230985	0.066252
4887	48.870000	0.040195	1.370359	-0.099920	-0.037312	1.188092	-0.173130	-0.346215	1.325875	-0.184645	-0.312489	1.298669	-0.224917	-0.525003	1.269780	-0.311750	-0.504631	1.223861	-0.323473	-0.150014	1.358699	-0.035551	-0.507644	1.261179	-0.254199	-0.549190	1.246549	-0.286693	-0.535940	1.222574	-0.291928	-0.486435	1.222417	-0.262510	-0.287761	1.359067	-0.084846	-0.250167	1.387588	-0.121911	-0.205156	1.405087	-0.080352	-0.231220	1.372742	-0.038792	0.053657	1.238316	0.047226	-0.020902	1.209042	0.074588	0.011972	1.252136	0.054302	0.039865	1.188374	0.063668	0.025220	1.277199	-0.001800	-0.049454	1.092090	0.012519	-0.112634	1.323623	-0.032833	-0.014330	1.231021	0.066295
4888	48.880000	0.040104	1.370348	-0.099970	-0.037341	1.187997	-0.173038	-0.346288	1.325494	-0.184522	-0.312542	1.298318	-0.224797	-0.525087	1.269096	-0.311498	-0.504669	1.223187	-0.323185	-0.150066	1.358621	-0.035499	-0.507639	1.260618	-0.253960	-0.549263	1.245920	-0.286398	-0.536231	1.221679	-0.291646	-0.486464	1.221794	-0.262157	-0.287817	1.358841	-0.084764	-0.250273	1.387383	-0.121860	-0.205253	1.404962	-0.080337	-0.231282	1.372609	-0.038751	0.053732	1.238405	0.047258	-0.020572	1.208838	0.074048	0.012042	1.252212	0.054335	0.039949	1.188464	0.063730	0.025229	1.277236	-0.001790	-0.049338	1.092094	0.012672	-0.112646	1.323602	-0.032799	-0.014246	1.231072	0.066335
4889	48.890000	0.040014	1.370341	-0.100014	-0.037358	1.187904	-0.172946	-0.346372	1.325135	-0.184390	-0.312609	1.297984	-0.224669	-0.525194	1.268459	-0.311231	-0.504733	1.222564	-0.322893	-0.150122	1.358542	-0.035455	-0.507756	1.260108	-0.253673	-0.549347	1.245306	-0.286058	-0.536292	1.221125	-0.291320	-0.486522	1.221251	-0.261810	-0.287881	1.358652	-0.084680	-0.250371	1.387197	-0.121818	-0.205396	1.404798	-0.080298	-0.231347	1.372497	-0.038709	0.053781	1.238515	0.047273	-0.020752	1.209085	0.074704	0.012083	1.252305	0.054365	0.040034	1.188550	0.063786	0.025234	1.277276	-0.001775	-0.049221	1.092100	0.012825	-0.112668	1.323578	-0.032759	-0.014224	1.231142	0.066409
4890	48.900000	0.039923	1.370339	-0.100053	-0.037364	1.187813	-0.172853	-0.346466	1.324803	-0.184252	-0.312691	1.297673	-0.224534	-0.525319	1.267878	-0.310953	-0.504815	1.221997	-0.322600	-0.150183	1.358461	-0.035419	-0.507888	1.259611	-0.253405	-0.549472	1.244745	-0.285719	-0.536035	1.220933	-0.290933	-0.486646	1.220792	-0.261469	-0.287945	1.358444	-0.084596	-0.250473	1.387008	-0.121762	-0.205511	1.404654	-0.080279	-0.231435	1.372358	-0.038638	0.053847	1.238632	0.047319	-0.020719	1.209164	0.074852	0.012111	1.252374	0.054406	0.040107	1.188648	0.063846	0.025235	1.277321	-0.001756	-0.049102	1.092108	0.012975	-0.112699	1.323552	-0.032716	-0.013831	1.231005	0.066274
4891	48.910000	0.039836	1.370342	-0.100086	-0.037361	1.187730	-0.172763	-0.346569	1.324501	-0.184108	-0.312785	1.297387	-0.224394	-0.525462	1.267356	-0.310668	-0.504917	1.221493	-0.322312	-0.150244	1.358383	-0.035390	-0.508025	1.259165	-0.253138	-0.549596	1.244273	-0.285438	-0.536635	1.220069	-0.290596	-0.486785	1.220410	-0.261139	-0.288041	1.358231	-0.084497	-0.250587	1.386803	-0.121733	-0.205658	1.404523	-0.080232	-0.231520	1.372195	-0.038589	0.053890	1.238721	0.047341	-0.020678	1.209231	0.074955	0.012146	1.252449	0.054447	0.040168	1.188758	0.063911	0.025233	1.277369	-0.001733	-0.048986	1.092119	0.013121	-0.112737	1.323524	-0.032669	-0.013825	1.231070	0.066353
4892	48.920000	0.039749	1.370352	-0.100111	-0.037350	1.187654	-0.172676	-0.346678	1.324233	-0.183961	-0.312891	1.297131	-0.224251	-0.525615	1.266899	-0.310381	-0.505030	1.221055	-0.322030	-0.150308	1.358308	-0.035365	-0.508145	1.258801	-0.252864	-0.549742	1.243869	-0.285130	-0.536722	1.219683	-0.290310	-0.486929	1.220043	-0.260836	-0.288146	1.358014	-0.084384	-0.250715	1.386650	-0.121631	-0.205807	1.404387	-0.080174	-0.231626	1.372045	-0.038498	0.053918	1.238824	0.047370	-0.020614	1.209279	0.075020	0.012162	1.252522	0.054473	0.040204	1.188889	0.063977	0.025227	1.277421	-0.001707	-0.048873	1.092132	0.013261	-0.112783	1.323493	-0.032619	-0.013808	1.231129	0.066420
4893	48.930000	0.039664	1.370369	-0.100129	-0.037335	1.187588	-0.172592	-0.346793	1.324000	-0.183812	-0.313005	1.296905	-0.224108	-0.525778	1.266508	-0.310097	-0.505155	1.220685	-0.321760	-0.150374	1.358237	-0.035342	-0.508258	1.258496	-0.252622	-0.549904	1.243521	-0.284854	-0.536829	1.219311	-0.290060	-0.487028	1.219700	-0.260600	-0.288248	1.357822	-0.084276	-0.250859	1.386484	-0.121531	-0.205929	1.404272	-0.080108	-0.231725	1.371903	-0.038391	0.053954	1.238904	0.047403	-0.020555	1.209337	0.075097	0.012182	1.252593	0.054516	0.040264	1.188979	0.064041	0.025218	1.277476	-0.001678	-0.048764	1.092148	0.013392	-0.112835	1.323459	-0.032567	-0.013793	1.231192	0.066492
4894	48.940000	0.039581	1.370392	-0.100140	-0.037318	1.187534	-0.172513	-0.346911	1.323803	-0.183664	-0.313126	1.296711	-0.223964	-0.525946	1.266186	-0.309819	-0.505289	1.220383	-0.321504	-0.150440	1.358174	-0.035320	-0.508370	1.258178	-0.252397	-0.550030	1.243151	-0.284573	-0.536912	1.218985	-0.289810	-0.487102	1.219378	-0.260413	-0.288356	1.357657	-0.084150	-0.251011	1.386336	-0.121427	-0.206042	1.404179	-0.080040	-0.231826	1.371766	-0.038285	0.053981	1.238996	0.047435	-0.020508	1.209401	0.075158	0.012190	1.252665	0.054563	0.040309	1.189067	0.064109	0.025206	1.277533	-0.001647	-0.048661	1.092167	0.013514	-0.112891	1.323423	-0.032513	-0.013697	1.231212	0.066523
4895	48.950000	0.039497	1.370423	-0.100144	-0.037299	1.187490	-0.172438	-0.347031	1.323644	-0.183518	-0.313253	1.296552	-0.223824	-0.526113	1.265930	-0.309551	-0.505426	1.220149	-0.321264	-0.150508	1.358114	-0.035296	-0.508475	1.257858	-0.252175	-0.550124	1.242785	-0.284318	-0.536552	1.219009	-0.289493	-0.487128	1.219097	-0.260284	-0.288467	1.357513	-0.084044	-0.251152	1.386219	-0.121319	-0.206157	1.404080	-0.079978	-0.231928	1.371664	-0.038195	0.053994	1.239085	0.047485	-0.020465	1.209455	0.075211	0.012205	1.252721	0.054597	0.040363	1.189146	0.064159	0.025191	1.277592	-0.001614	-0.048562	1.092187	0.013627	-0.112952	1.323382	-0.032459	-0.013692	1.231274	0.066597
4896	48.960000	0.039416	1.370460	-0.100141	-0.037282	1.187459	-0.172368	-0.347151	1.323522	-0.183375	-0.313383	1.296426	-0.223687	-0.526281	1.265741	-0.309299	-0.505569	1.219978	-0.321040	-0.150575	1.358061	-0.035268	-0.508584	1.257572	-0.251946	-0.550214	1.242519	-0.284093	-0.536662	1.218739	-0.289348	-0.487180	1.218874	-0.260168	-0.288553	1.357425	-0.083953	-0.251269	1.386136	-0.121233	-0.206230	1.403998	-0.079927	-0.232012	1.371591	-0.038108	0.054010	1.239186	0.047528	-0.020480	1.209540	0.075351	0.012201	1.252776	0.054639	0.040406	1.189229	0.064237	0.025174	1.277652	-0.001579	-0.048470	1.092210	0.013729	-0.113014	1.323340	-0.032406	-0.013748	1.231348	0.066693
4897	48.970000	0.039334	1.370502	-0.100132	-0.037267	1.187438	-0.172302	-0.347270	1.323436	-0.183237	-0.313516	1.296335	-0.223556	-0.526443	1.265614	-0.309064	-0.505711	1.219868	-0.320835	-0.150643	1.358013	-0.035236	-0.508707	1.257383	-0.251724	-0.550349	1.242342	-0.283894	-0.536767	1.218587	-0.289167	-0.487260	1.218728	-0.260042	-0.288641	1.357359	-0.083861	-0.251377	1.386064	-0.121148	-0.206319	1.403938	-0.079853	-0.232084	1.371541	-0.038024	0.054034	1.239279	0.047562	-0.020109	1.209330	0.074715	0.012203	1.252839	0.054687	0.040439	1.189324	0.064324	0.025155	1.277713	-0.001544	-0.048381	1.092233	0.013821	-0.113078	1.323294	-0.032354	-0.013771	1.231398	0.066779
4898	48.980000	0.039252	1.370550	-0.100118	-0.037255	1.187428	-0.172241	-0.347388	1.323386	-0.183103	-0.313650	1.296278	-0.223431	-0.526599	1.265547	-0.308849	-0.505853	1.219814	-0.320647	-0.150711	1.357968	-0.035199	-0.508849	1.257283	-0.251516	-0.550525	1.242260	-0.283655	-0.536925	1.218505	-0.289018	-0.487400	1.218658	-0.259895	-0.288724	1.357327	-0.083751	-0.251468	1.386017	-0.121063	-0.206387	1.403892	-0.079795	-0.232138	1.371516	-0.037946	0.054030	1.239380	0.047601	-0.020364	1.209613	0.075244	0.012193	1.252910	0.054720	0.040472	1.189408	0.064363	0.025135	1.277774	-0.001509	-0.048295	1.092256	0.013904	-0.113141	1.323245	-0.032304	-0.013833	1.231568	0.066899
4899	48.990000	0.039171	1.370602	-0.100099	-0.037245	1.187427	-0.172184	-0.347502	1.323367	-0.182973	-0.313783	1.296251	-0.223312	-0.526747	1.265534	-0.308656	-0.505995	1.219809	-0.320476	-0.150778	1.357928	-0.035156	-0.508998	1.257263	-0.251333	-0.550679	1.242259	-0.283469	-0.537058	1.218532	-0.288848	-0.487587	1.218652	-0.259703	-0.288806	1.357320	-0.083646	-0.251552	1.386007	-0.120983	-0.206514	1.403926	-0.079659	-0.232208	1.371495	-0.037872	0.054028	1.239484	0.047641	-0.020652	1.209878	0.075863	0.012196	1.252978	0.054761	0.040514	1.189494	0.064426	0.025116	1.277834	-0.001474	-0.048213	1.092278	0.013977	-0.113202	1.323194	-0.032256	-0.014080	1.231795	0.067086
